<?xml version="1.0" encoding="utf-8"?>
<svg xmlns="http://www.w3.org/2000/svg"
	xmlns:xlink="http://www.w3.org/1999/xlink"
	width="53px" height="44px" viewBox="0 0 53 44">
<path fillRule="evenodd" d="M 20.3-0C 18.69 1.03 16.67 2.36 14.29 4 11.89 5.63 9.62 7.61 7.5 9.93 5.41 12.2 3.63 14.8 2.19 17.7 0.72 20.6-0 23.8-0 27.33-0 32.31 0.96 36.35 2.89 39.4 4.82 42.47 8.03 44 12.51 44 15.37 44 17.62 43.01 19.28 41.01 20.92 39.04 21.74 36.89 21.74 34.59 21.74 31.37 20.85 28.94 19.07 27.26 17.28 25.59 14.86 24.75 11.76 24.75 11.76 24.75 8.15 24.75 8.15 24.75 8.45 21.96 8.96 19.66 9.73 17.87 10.47 16.11 11.55 14.42 12.95 12.78 14.46 11.06 15.95 9.67 17.39 8.62 18.83 7.58 20.75 6.32 23.1 4.86 23.1 4.86 20.3-0 20.3-0 20.3-0 20.3-0 20.3-0ZM 50.2-0C 48.58 1.03 46.57 2.36 44.19 4 41.79 5.63 39.52 7.61 37.39 9.93 35.31 12.2 33.53 14.8 32.08 17.7 30.62 20.6 29.9 23.8 29.9 27.33 29.9 32.31 30.85 36.35 32.79 39.4 34.72 42.47 37.92 44 42.4 44 45.27 44 47.52 43.01 49.18 41.01 50.81 39.04 51.64 36.89 51.64 34.59 51.64 31.37 50.75 28.94 48.97 27.26 47.18 25.59 44.76 24.75 41.66 24.75 41.66 24.75 38.05 24.75 38.05 24.75 38.35 21.96 38.86 19.68 39.58 17.92 40.3 16.18 41.41 14.46 42.85 12.78 44.36 11.06 45.84 9.67 47.29 8.62 48.73 7.58 50.64 6.32 53 4.86 53 4.86 50.2-0 50.2-0 50.2-0 50.2-0 50.2-0Z" fill="rgb(211,211,211)"/></svg>