<?xml version="1.0" encoding="utf-8"?>
<svg xmlns="http://www.w3.org/2000/svg"
	xmlns:xlink="http://www.w3.org/1999/xlink"
	width="13px" height="14px" viewBox="0 0 13 14">
<path fillRule="evenodd" d="M 3.54 12.09C 3.54 11.04 2.75 10.18 1.77 10.18 0.79 10.18-0 11.04-0 12.09-0 13.14 0.79 14 1.77 14 2.75 14 3.54 13.14 3.54 12.09 3.54 12.09 3.54 12.09 3.54 12.09ZM 8.27 13.31C 8.11 11.2 7.25 9.2 5.85 7.7 4.46 6.18 2.6 5.26 0.64 5.09 0.64 5.09 0.59 5.09 0.59 5.09 0.44 5.09 0.3 5.15 0.19 5.26 0.06 5.38-0 5.55-0 5.73-0 5.73-0 7.07-0 7.07-0 7.4 0.23 7.67 0.54 7.7 3.35 7.98 5.58 10.39 5.85 13.42 5.88 13.75 6.13 14 6.43 14 6.43 14 7.68 14 7.68 14 7.84 14 8 13.93 8.11 13.79 8.22 13.66 8.28 13.49 8.27 13.31 8.27 13.31 8.27 13.31 8.27 13.31ZM 13 13.33C 12.83 9.85 11.47 6.58 9.17 4.12 6.88 1.64 3.85 0.18 0.62-0 0.62-0 0.59-0 0.59-0 0.44-0 0.3 0.06 0.18 0.18 0.06 0.3-0 0.46-0 0.64-0 0.64-0 2.06-0 2.06-0 2.39 0.24 2.66 0.55 2.68 5.91 3.02 10.19 7.63 10.49 13.4 10.51 13.74 10.77 14 11.08 14 11.08 14 12.4 14 12.4 14 12.57 14 12.71 13.93 12.83 13.8 12.95 13.67 13.01 13.5 13 13.33 13 13.33 13 13.33 13 13.33Z" fill="rgb(127,124,118)"/></svg>